<?xml version="1.0" encoding="UTF-8"?>
<mxfile host="app.diagrams.net" modified="4-horizontal-app-scaling" agent="PlantUML Converter" version="1.0" etag="plantuml-diagram" type="device">
  <diagram id="plantuml-4-horizontal-app-scaling" name="4-horizontal-app-scaling">
    <mxGraphModel dx="1422" dy="794" grid="1" gridSize="10" guides="1" tooltips="1" connect="1" arrows="1" fold="1" page="1" pageScale="1" pageWidth="827" pageHeight="1169" math="0" shadow="0">
      <root>
        <mxCell id="0" />
        <mxCell id="1" parent="0" />
        <mxCell id="plantuml-container" value="" style="shape=image;html=1;verticalAlign=top;verticalLabelPosition=bottom;labelBackgroundColor=#ffffff;imageAspect=0;aspect=fixed;image=data:image/svg+xml,PHN2ZyB4bWxucz0iaHR0cDovL3d3dy53My5vcmcvMjAwMC9zdmciIHdpZHRoPSI0MDAiIGhlaWdodD0iMzAwIiB2aWV3Qm94PSIwIDAgNDAwIDMwMCI+CiAgPHJlY3Qgd2lkdGg9IjQwMCIgaGVpZ2h0PSIzMDAiIGZpbGw9IiNmOGY5ZmEiIHN0cm9rZT0iI2RlZTJlNiIvPgogIDx0ZXh0IHg9IjIwMCIgeT0iMTUwIiB0ZXh0LWFuY2hvcj0ibWlkZGxlIiBmb250LWZhbWlseT0iQXJpYWwiIGZvbnQtc2l6ZT0iMTQiIGZpbGw9IiM2Yzc1N2QiPgogICAgRGlhZ3JhbWEgUGxhbnRVTUw6IDQtaG9yaXpvbnRhbC1hcHAtc2NhbGluZwogIDwvdGV4dD4KICA8dGV4dCB4PSIyMDAiIHk9IjE3MCIgdGV4dC1hbmNob3I9Im1pZGRsZSIgZm9udC1mYW1pbHk9IkFyaWFsIiBmb250LXNpemU9IjEyIiBmaWxsPSIjNmM3NTdkIj4KICAgIChTVkcgbsOjbyBkaXNwb27DrXZlbCAtIHVzZSBvIGPDs2RpZ28gUGxhbnRVTUwgaW5jb3Jwb3JhZG8pCiAgPC90ZXh0Pgo8L3N2Zz4=;plantuml=QHN0YXJ0dW1sCiFpbmNsdWRlIGh0dHBzOi8vcmF3LmdpdGh1YnVzZXJjb250ZW50LmNvbS9wbGFudHVtbC1zdGRsaWIvQzQtUGxhbnRVTUwvbWFzdGVyL0M0X0NvbnRhaW5lci5wdW1sCgohZGVmaW5lIERFVklDT05TIGh0dHBzOi8vcmF3LmdpdGh1YnVzZXJjb250ZW50LmNvbS90dXBhZHIzL3BsYW50dW1sLWljb24tZm9udC1zcHJpdGVzL21hc3Rlci9kZXZpY29ucwohZGVmaW5lIEZPTlRBV0VTT01FIGh0dHBzOi8vcmF3LmdpdGh1YnVzZXJjb250ZW50LmNvbS90dXBhZHIzL3BsYW50dW1sLWljb24tZm9udC1zcHJpdGVzL21hc3Rlci9mb250LWF3ZXNvbWUtNQohaW5jbHVkZSBERVZJQ09OUy9yZWFjdC5wdW1sCiFpbmNsdWRlIERFVklDT05TL2phdmEucHVtbAohaW5jbHVkZSBERVZJQ09OUy9wb3N0Z3Jlc3FsLnB1bWwKIWluY2x1ZGUgREVWSUNPTlMvbmdpbngucHVtbAohaW5jbHVkZSBGT05UQVdFU09NRS91c2Vycy5wdW1sCiFpbmNsdWRlIEZPTlRBV0VTT01FL3NlcnZlci5wdW1sCiFpbmNsdWRlIEZPTlRBV0VTT01FL2RhdGFiYXNlLnB1bWwKIWluY2x1ZGUgRk9OVEFXRVNPTUUvY2hhcnRfbGluZS5wdW1sCgp0aXRsZSBIb3Jpem9udGFsIEFwcGxpY2F0aW9uIFNjYWxpbmcgQXJjaGl0ZWN0dXJlCgpQZXJzb24odXNlcnMsICJVc2VycyIsICJNdWx0aXBsZSBjb25jdXJyZW50IHVzZXJzIGdlbmVyYXRpbmcgdmFyeWluZyBsb2FkIiwgJHNwcml0ZT0idXNlcnMiKQoKU3lzdGVtX0JvdW5kYXJ5KGxiX2JvdW5kYXJ5LCAiTG9hZCBCYWxhbmNpbmcgTGF5ZXIiKSB7CiAgICBDb250YWluZXIoYXBwX2xiLCAiQXBwbGljYXRpb24gTG9hZCBCYWxhbmNlciIsICJBV1MgQUxCL05HSU5YIFBsdXMiLCAiSW50ZWxsaWdlbnQgcmVxdWVzdCBkaXN0cmlidXRpb24gd2l0aCBoZWFsdGggY2hlY2tzIiwgJHNwcml0ZT0ibmdpbngiKQp9CgpTeXN0ZW1fQm91bmRhcnkoYXBwX2JvdW5kYXJ5LCAiSG9yaXpvbnRhbGx5IFNjYWxlZCBBcHBsaWNhdGlvbiBUaWVyIikgewogICAgQ29udGFpbmVyKGFwcF8xLCAiQXBwIEluc3RhbmNlIDEiLCAiSmF2YSBTcHJpbmcgQm9vdCIsICJTdGF0ZWxlc3MgYXBwbGljYXRpb24gc2VydmVyIGhhbmRsaW5nIGJ1c2luZXNzIGxvZ2ljIiwgJHNwcml0ZT0iamF2YSIpCiAgICBDb250YWluZXIoYXBwXzIsICJBcHAgSW5zdGFuY2UgMiIsICJKYXZhIFNwcmluZyBCb290IiwgIklkZW50aWNhbCBhcHBsaWNhdGlvbiBpbnN0YW5jZSBmb3IgbG9hZCBkaXN0cmlidXRpb24iLCAkc3ByaXRlPSJqYXZhIikKICAgIENvbnRhaW5lcihhcHBfMywgIkFwcCBJbnN0YW5jZSAzIiwgIkphdmEgU3ByaW5nIEJvb3QiLCAiQWRkaXRpb25hbCBpbnN0YW5jZSBmb3IgcGVhayBsb2FkIGhhbmRsaW5nIiwgJHNwcml0ZT0iamF2YSIpCiAgICBDb250YWluZXIoYXBwXzQsICJBcHAgSW5zdGFuY2UgNCIsICJKYXZhIFNwcmluZyBCb290IiwgIkF1dG8tc2NhbGVkIGluc3RhbmNlIGJhc2VkIG9uIG1ldHJpY3MiLCAkc3ByaXRlPSJqYXZhIikKICAgIENvbnRhaW5lcihhcHBfNSwgIkFwcCBJbnN0YW5jZSA1IiwgIkphdmEgU3ByaW5nIEJvb3QiLCAiRXh0cmEgY2FwYWNpdHkgZm9yIGhpZ2ggYXZhaWxhYmlsaXR5IiwgJHNwcml0ZT0iamF2YSIpCn0KClN5c3RlbV9Cb3VuZGFyeShkYXRhX2JvdW5kYXJ5LCAiU2hhcmVkIERhdGEgTGF5ZXIiKSB7CiAgICBDb250YWluZXJEYihzaGFyZWRfZGIsICJTaGFyZWQgRGF0YWJhc2UiLCAiUG9zdGdyZVNRTCBDbHVzdGVyIiwgIkNlbnRyYWxpemVkIGRhdGEgc3RvcmFnZSB3aXRoIGNvbm5lY3Rpb24gcG9vbGluZyIsICRzcHJpdGU9InBvc3RncmVzcWwiKQp9CgpTeXN0ZW1fQm91bmRhcnkobW9uaXRvcmluZ19ib3VuZGFyeSwgIk1vbml0b3JpbmcgJiBBdXRvLVNjYWxpbmciKSB7CiAgICBDb250YWluZXIobWV0cmljc19jb2xsZWN0b3IsICJNZXRyaWNzIENvbGxlY3RvciIsICJQcm9tZXRoZXVzL0Nsb3VkV2F0Y2giLCAiQ29sbGVjdHMgcGVyZm9ybWFuY2UgYW5kIGxvYWQgbWV0cmljcyIsICRzcHJpdGU9ImNoYXJ0X2xpbmUiKQogICAgQ29udGFpbmVyKGF1dG9fc2NhbGVyLCAiQXV0byBTY2FsZXIiLCAiS3ViZXJuZXRlcyBIUEEvQVdTIEFTRyIsICJBdXRvbWF0aWNhbGx5IHNjYWxlcyBpbnN0YW5jZXMgYmFzZWQgb24gbG9hZCIsICRzcHJpdGU9InNlcnZlciIpCn0KCicgVXNlciB0cmFmZmljClJlbCh1c2VycywgYXBwX2xiLCAiSFRUUC9IVFRQUyBSZXF1ZXN0cyIsICJWYXJpYWJsZSBsb2FkIHBhdHRlcm5zIikKCicgTG9hZCBiYWxhbmNlciBkaXN0cmlidXRpb24KUmVsKGFwcF9sYiwgYXBwXzEsICJEaXN0cmlidXRlcyBMb2FkIiwgIlJvdW5kLXJvYmluL0xlYXN0IGNvbm5lY3Rpb25zIikKUmVsKGFwcF9sYiwgYXBwXzIsICJEaXN0cmlidXRlcyBMb2FkIiwgIkhlYWx0aC1jaGVja2VkIHJvdXRpbmciKQpSZWwoYXBwX2xiLCBhcHBfMywgIkRpc3RyaWJ1dGVzIExvYWQiLCAiV2VpZ2h0ZWQgZGlzdHJpYnV0aW9uIikKUmVsKGFwcF9sYiwgYXBwXzQsICJEaXN0cmlidXRlcyBMb2FkIiwgIkR5bmFtaWMgcm91dGluZyIpClJlbChhcHBfbGIsIGFwcF81LCAiRGlzdHJpYnV0ZXMgTG9hZCIsICJGYWlsb3ZlciByZWFkeSIpCgonIEFwcGxpY2F0aW9uIHRvIGRhdGFiYXNlIGNvbm5lY3Rpb25zClJlbChhcHBfMSwgc2hhcmVkX2RiLCAiU1FMIFF1ZXJpZXMiLCAiQ29ubmVjdGlvbiBwb29sIikKUmVsKGFwcF8yLCBzaGFyZWRfZGIsICJTUUwgUXVlcmllcyIsICJDb25uZWN0aW9uIHBvb2wiKQpSZWwoYXBwXzMsIHNoYXJlZF9kYiwgIlNRTCBRdWVyaWVzIiwgIkNvbm5lY3Rpb24gcG9vbCIpClJlbChhcHBfNCwgc2hhcmVkX2RiLCAiU1FMIFF1ZXJpZXMiLCAiQ29ubmVjdGlvbiBwb29sIikKUmVsKGFwcF81LCBzaGFyZWRfZGIsICJTUUwgUXVlcmllcyIsICJDb25uZWN0aW9uIHBvb2wiKQoKJyBNb25pdG9yaW5nIGFuZCBtZXRyaWNzClJlbChhcHBfMSwgbWV0cmljc19jb2xsZWN0b3IsICJQZXJmb3JtYW5jZSBNZXRyaWNzIiwgIkNQVS9NZW1vcnkvUmVzcG9uc2UgdGltZSIpClJlbChhcHBfMiwgbWV0cmljc19jb2xsZWN0b3IsICJQZXJmb3JtYW5jZSBNZXRyaWNzIiwgIkNQVS9NZW1vcnkvUmVzcG9uc2UgdGltZSIpClJlbChhcHBfMywgbWV0cmljc19jb2xsZWN0b3IsICJQZXJmb3JtYW5jZSBNZXRyaWNzIiwgIkNQVS9NZW1vcnkvUmVzcG9uc2UgdGltZSIpClJlbChhcHBfNCwgbWV0cmljc19jb2xsZWN0b3IsICJQZXJmb3JtYW5jZSBNZXRyaWNzIiwgIkNQVS9NZW1vcnkvUmVzcG9uc2UgdGltZSIpClJlbChhcHBfNSwgbWV0cmljc19jb2xsZWN0b3IsICJQZXJmb3JtYW5jZSBNZXRyaWNzIiwgIkNQVS9NZW1vcnkvUmVzcG9uc2UgdGltZSIpClJlbChhcHBfbGIsIG1ldHJpY3NfY29sbGVjdG9yLCAiTG9hZCBNZXRyaWNzIiwgIlJlcXVlc3QgcmF0ZS9MYXRlbmN5IikKCicgQXV0by1zY2FsaW5nIGRlY2lzaW9ucwpSZWwobWV0cmljc19jb2xsZWN0b3IsIGF1dG9fc2NhbGVyLCAiQWdncmVnYXRlZCBNZXRyaWNzIiwgIlNjYWxpbmcgdHJpZ2dlcnMiKQpSZWwoYXV0b19zY2FsZXIsIGFwcF9ib3VuZGFyeSwgIlNjYWxlIEFjdGlvbnMiLCAiQWRkL1JlbW92ZSBpbnN0YW5jZXMiKQoKJyBIZWFsdGggY2hlY2tzClJlbChhcHBfbGIsIGFwcF8xLCAiSGVhbHRoIENoZWNrcyIsICJIVFRQL1RDUCBwcm9iZXMiKQpSZWwoYXBwX2xiLCBhcHBfMiwgIkhlYWx0aCBDaGVja3MiLCAiSFRUUC9UQ1AgcHJvYmVzIikKUmVsKGFwcF9sYiwgYXBwXzMsICJIZWFsdGggQ2hlY2tzIiwgIkhUVFAvVENQIHByb2JlcyIpClJlbChhcHBfbGIsIGFwcF80LCAiSGVhbHRoIENoZWNrcyIsICJIVFRQL1RDUCBwcm9iZXMiKQpSZWwoYXBwX2xiLCBhcHBfNSwgIkhlYWx0aCBDaGVja3MiLCAiSFRUUC9UQ1AgcHJvYmVzIikKCm5vdGUgcmlnaHQgb2YgYXBwX2xiCiAgKipMb2FkIEJhbGFuY2luZyBGZWF0dXJlczoqKgogIOKAoiBIZWFsdGgtYmFzZWQgcm91dGluZwogIOKAoiBTdGlja3kgc2Vzc2lvbnMgKGlmIG5lZWRlZCkKICDigKIgU1NMIHRlcm1pbmF0aW9uCiAg4oCiIFJlcXVlc3QgcmF0ZSBsaW1pdGluZwogIOKAoiBHZW9ncmFwaGljIHJvdXRpbmcKZW5kIG5vdGUKCm5vdGUgcmlnaHQgb2YgYXBwXzEKICAqKkFwcGxpY2F0aW9uIERlc2lnbjoqKgogIOKAoiBTdGF0ZWxlc3MgYXJjaGl0ZWN0dXJlCiAg4oCiIFNoYXJlZC1ub3RoaW5nIGRlc2lnbgogIOKAoiBDb25uZWN0aW9uIHBvb2xpbmcKICDigKIgR3JhY2VmdWwgc2h1dGRvd24KICDigKIgUmVzb3VyY2Ugb3B0aW1pemF0aW9uCmVuZCBub3RlCgpub3RlIHJpZ2h0IG9mIHNoYXJlZF9kYgogICoqRGF0YWJhc2UgQ29uc2lkZXJhdGlvbnM6KioKICDigKIgQ29ubmVjdGlvbiBwb29sIGxpbWl0cwogIOKAoiBRdWVyeSBvcHRpbWl6YXRpb24KICDigKIgSW5kZXggbWFuYWdlbWVudAogIOKAoiBMb2NrIGNvbnRlbnRpb24KICDigKIgUGVyZm9ybWFuY2UgbW9uaXRvcmluZwplbmQgbm90ZQoKbm90ZSByaWdodCBvZiBhdXRvX3NjYWxlcgogICoqQXV0by1TY2FsaW5nIFRyaWdnZXJzOioqCiAg4oCiIENQVSB1dGlsaXphdGlvbiA+IDcwJQogIOKAoiBNZW1vcnkgdXNhZ2UgPiA4MCUKICDigKIgUmVxdWVzdCBxdWV1ZSBkZXB0aAogIOKAoiBSZXNwb25zZSB0aW1lID4gU0xBCiAg4oCiIEN1c3RvbSBidXNpbmVzcyBtZXRyaWNzCmVuZCBub3RlCgpub3RlIHRvcCBvZiBhcHBfYm91bmRhcnkKICAqKkhvcml6b250YWwgU2NhbGluZyBCZW5lZml0czoqKgogIOKAoiBMaW5lYXIgY2FwYWNpdHkgaW5jcmVhc2UKICDigKIgRmF1bHQgdG9sZXJhbmNlCiAg4oCiIENvc3Qgb3B0aW1pemF0aW9uCiAg4oCiIEVsYXN0aWMgcmVzb3VyY2UgdXNhZ2UKICDigKIgUGVyZm9ybWFuY2UgY29uc2lzdGVuY3kKZW5kIG5vdGUKCm5vdGUgYm90dG9tIG9mIGRhdGFfYm91bmRhcnkKICAqKlNjYWxpbmcgQ2hhbGxlbmdlczoqKgogIOKAoiBEYXRhYmFzZSBib3R0bGVuZWNrCiAg4oCiIENvbm5lY3Rpb24gcG9vbCBleGhhdXN0aW9uCiAg4oCiIERhdGEgY29uc2lzdGVuY3kKICDigKIgU2Vzc2lvbiBtYW5hZ2VtZW50CiAg4oCiIENvbmZpZ3VyYXRpb24gc3luY2hyb25pemF0aW9uCmVuZCBub3RlCgpAZW5kdW1s;" vertex="1" parent="1">
          <mxGeometry x="40" y="40" width="400" height="300" as="geometry" />
        </mxCell>
      </root>
    </mxGraphModel>
  </diagram>
</mxfile>